/vscmnt/brussel_pixiu_data/_data_brussel/112/vsc11236/PredSimResults/SUBJ04mtu3D/weighted-LRposFixed/trackIG/worker_05.mot
version=1
nRows=11
nColumns=50
inDegrees=yes
endheader
                time	         pelvis_tilt	         pelvis_list	     pelvis_rotation	           pelvis_tx	           pelvis_ty	           pelvis_tz	       hip_flexion_r	     hip_adduction_r	      hip_rotation_r	        knee_angle_r	       ankle_angle_r	         mtp_angle_r	       hip_flexion_l	     hip_adduction_l	      hip_rotation_l	        knee_angle_l	       ankle_angle_l	         mtp_angle_l	    lumbar_extension	      lumbar_bending	     lumbar_rotation	 ercspn_r/activation	 intobl_r/activation	 extobl_r/activation	    abd_r/activation	    add_r/activation	hamstrings_r/activation	bifemsh_r/activation	glut_max_r/activation	iliopsoas_r/activation	rect_fem_r/activation	  vasti_r/activation	gastroc_r/activation	 soleus_r/activation	tib_ant_r/activation	 ercspn_l/activation	 intobl_l/activation	 extobl_l/activation	    abd_l/activation	    add_l/activation	hamstrings_l/activation	bifemsh_l/activation	glut_max_l/activation	iliopsoas_l/activation	rect_fem_l/activation	  vasti_l/activation	gastroc_l/activation	 soleus_l/activation	tib_ant_l/activation	
          0.70043914	         -5.91119755	          4.66358128	        -12.49655827	          0.60237766	          0.88330129	          0.02306746	         -7.54091355	         -3.88889639	         16.21605097	         -7.84776243	         12.70810790	         22.23908160	         25.05396218	         -0.00298456	         -5.63135013	          2.32192708	          5.48678631	          0.21540944	         -2.54961385	         -1.53124977	          1.52876695	          0.03340187	          0.00999999	          0.00999999	          0.09625358	          0.00999999	          0.02092675	          0.15385685	          0.08059750	          0.34999500	          0.00999999	          0.00999999	          0.32741254	          0.29199588	          0.01521471	          0.09368866	          0.15740348	          0.02174692	          0.02072112	          0.10242672	          0.03420067	          0.01000000	          0.00999999	          0.05885361	          0.01389758	          0.02010610	          0.00999999	          0.00999999	          0.26951167	
          0.71444792	         -6.03582686	          4.54706573	        -12.38778706	          0.61728057	          0.88128875	          0.02189482	         -7.81452291	         -3.76812048	         15.43436632	         -9.06206519	         12.59283312	         23.88216551	         24.76507953	          0.28054904	         -4.44106350	          1.64208728	          5.10917164	          0.22182089	         -2.24964743	         -1.83516873	          1.78678442	          0.06202556	          0.00999999	          0.00999999	          0.07803418	          0.02570344	          0.01879087	          0.12473399	          0.07095473	          0.32407543	          0.00999999	          0.00999999	          0.30731806	          0.29016674	          0.01233479	          0.07595476	          0.15000611	          0.01763055	          0.01679891	          0.14725907	          0.03095569	          0.00999999	          0.01359633	          0.04771348	          0.01126698	          0.01630031	          0.01534453	          0.01773631	          0.27030907	
          0.72845670	         -6.14231627	          4.42359938	        -12.21189176	          0.63259942	          0.87941605	          0.02063323	         -8.02854083	         -3.61837656	         14.59033999	        -10.47972985	         12.36312218	         25.59267659	         24.34211598	          0.56185280	         -3.27626582	          0.91692359	          4.70806870	          0.21344822	         -1.92904009	         -2.15364002	          2.03532370	          0.07693968	          0.00999999	          0.00999999	          0.06326345	          0.04715042	          0.01671782	          0.10112367	          0.05752403	          0.28874122	          0.00999999	          0.00999999	          0.28196567	          0.28165581	          0.00999999	          0.06483988	          0.16339920	          0.01429334	          0.01813520	          0.11938507	          0.03399764	          0.03523656	          0.02727713	          0.03868202	          0.00999999	          0.01321490	          0.01244003	          0.01437908	          0.30741505	
          0.74246549	         -6.23178862	          4.29945054	        -11.95821402	          0.64812391	          0.87789446	          0.01926557	         -8.11804774	         -3.43623049	         13.69217304	        -12.17672110	         11.95862126	         27.36587243	         23.78972048	          0.86025794	         -2.18331445	          0.42057651	          4.15713190	          0.20001149	         -1.60975345	         -2.49566240	          2.27151323	          0.09958075	          0.00999999	          0.00999999	          0.05128860	          0.04538527	          0.01709759	          0.08198243	          0.04663557	          0.24592648	          0.00999999	          0.00999999	          0.25063981	          0.26456993	          0.00999999	          0.06979824	          0.14262691	          0.01158782	          0.04497876	          0.09719921	          0.03473295	          0.02856679	          0.04068436	          0.03136007	          0.00999999	          0.01071351	          0.01008532	          0.01165733	          0.33502974	
          0.75647427	         -6.30438753	          4.17436619	        -11.62705961	          0.66368934	          0.87691330	          0.01780546	         -8.04586579	         -3.21954723	         12.73491022	        -14.17906662	         11.31271889	         29.17172418	         23.16046887	          1.17773595	         -1.17261757	          0.02594385	          3.65600182	          0.18447371	         -1.30494247	         -2.86175481	          2.49219032	          0.11851158	          0.00999999	          0.00999999	          0.04158042	          0.04752679	          0.01896525	          0.06646435	          0.03780814	          0.21514783	          0.00999999	          0.00999999	          0.20319735	          0.23841685	          0.00999999	          0.06623506	          0.11562972	          0.00999999	          0.06598327	          0.08342474	          0.03860814	          0.02315952	          0.04650517	          0.02542407	          0.00999999	          0.02388382	          0.00999999	          0.00999999	          0.35995499	
          0.77048305	         -6.36005032	          4.04568374	        -11.22298940	          0.67919218	          0.87655807	          0.01627083	         -7.79447660	         -2.96900058	         11.70775239	        -16.48925561	         10.40463230	         30.91784561	         22.46986629	          1.50511362	         -0.24319988	         -0.30613655	          3.28525448	          0.16976491	         -1.02040358	         -3.24496582	          2.69275247	          0.13230299	          0.00999999	          0.00999999	          0.03370985	          0.05777637	          0.02471082	          0.05388362	          0.03065161	          0.19384523	          0.00999999	          0.00999999	          0.16473506	          0.19328802	          0.00999999	          0.05991995	          0.09374270	          0.00999999	          0.08901122	          0.07986046	          0.04260083	          0.01877576	          0.04228280	          0.02061166	          0.00999999	          0.03188568	          0.00999999	          0.00999999	          0.37117489	
          0.78449184	         -6.39908859	          3.90875643	        -10.75144885	          0.69452293	          0.87682706	          0.01468488	         -7.34916512	         -2.68527811	         10.59389315	        -19.11016700	          9.27016627	         32.43109869	         21.72828544	          1.82767762	          0.61120705	         -0.59014948	          3.07225407	          0.15773752	         -0.76445407	         -3.63710790	          2.87018488	          0.14237759	          0.00999999	          0.00999999	          0.02732907	          0.07235734	          0.03179523	          0.04368424	          0.02484971	          0.17320314	          0.00999999	          0.00999999	          0.13355311	          0.15670141	          0.00999999	          0.04970578	          0.07599857	          0.00999999	          0.10830930	          0.06999089	          0.04480865	          0.01522178	          0.03530104	          0.01671018	          0.00999999	          0.03836912	          0.00999999	          0.00999999	          0.36853938	
          0.79850062	         -6.42254392	          3.75276217	        -10.21792259	          0.70956737	          0.87769135	          0.01307158	         -6.70143625	         -2.36805502	          9.37175330	        -22.02804435	          7.97077722	         33.47212759	         20.94203537	          2.12570703	          1.39704349	         -0.82237518	          3.00020785	          0.15017488	         -0.54824255	         -4.02400805	          3.02342004	          0.14510019	          0.00999999	          0.00999999	          0.02215607	          0.08433952	          0.03684894	          0.04769531	          0.02014602	          0.15384085	          0.00999999	          0.00999999	          0.10827346	          0.12704012	          0.00999999	          0.04566950	          0.06161315	          0.00999999	          0.11774487	          0.05674263	          0.04652464	          0.01234052	          0.03217631	          0.01354718	          0.00999999	          0.03110641	          0.00999999	          0.00999999	          0.35630666	
          0.81250940	         -6.43095498	          3.56101419	         -9.62893381	          0.72426401	          0.87907951	          0.01144765	         -5.85340202	         -2.01996264	          8.03161921	        -25.22265297	          6.59052913	         33.78883888	         20.11952017	          2.37694118	          2.12625477	         -1.00470718	          3.01521066	          0.14808406	         -0.37890545	         -4.38488296	          3.15217976	          0.14287886	          0.00999999	          0.00999999	          0.01796225	          0.09492105	          0.03727550	          0.04784799	          0.01633267	          0.13676472	          0.00999999	          0.00999999	          0.08777887	          0.10299328	          0.00999999	          0.04452722	          0.04995068	          0.00999999	          0.11828117	          0.04600208	          0.04813057	          0.01000464	          0.02974561	          0.01098290	          0.00999999	          0.02521842	          0.00999999	          0.00999999	          0.34135096	
          0.82651818	         -6.42403508	          3.31833355	         -8.98951604	          0.73861479	          0.88088236	          0.00982257	         -4.82127281	         -1.64893105	          6.59436842	        -28.64605911	          5.09230088	         33.39559335	         19.26579405	          2.56259052	          2.81268429	         -1.14101571	          3.07128738	          0.14934287	         -0.25700244	         -4.70045233	          3.25493232	          0.13969896	          0.00999999	          0.00999999	          0.01456226	          0.10609889	          0.03557834	          0.04878866	          0.01324114	          0.12350893	          0.00999999	          0.00999999	          0.07116361	          0.08349816	          0.00999999	          0.03884874	          0.04049575	          0.00999999	          0.11227080	          0.03729456	          0.04939398	          0.01000000	          0.02800896	          0.00999999	          0.00999999	          0.02044494	          0.00999999	          0.00999999	          0.32674480	
          0.84052697	         -6.40124275	          3.01419326	         -8.30292433	          0.75264119	          0.88297291	          0.00819472	         -3.63179617	         -1.26427289	          5.09768613	        -32.21218029	          3.37056883	         32.44386134	         18.38995922	          2.66992279	          3.46830164	         -1.24802018	          3.15204445	          0.15291748	         -0.18103691	         -4.95534152	          3.33067582	          0.13590818	          0.00999999	          0.00999999	          0.01180584	          0.12035992	          0.03362923	          0.05839107	          0.01073478	          0.11471766	          0.00999999	          0.00999999	          0.05769338	          0.06769317	          0.00999999	          0.03149524	          0.03283049	          0.00999999	          0.10466106	          0.03023524	          0.05102661	          0.01000001	          0.02632560	          0.00999999	          0.00999999	          0.01657501	          0.00999999	          0.00999999	          0.31409912	
